<svg width="100" height="96" viewBox="0 0 100 96" fill="none" xmlns="http://www.w3.org/2000/svg">
<path d="M33.4476 76.6172C33.4476 77.0078 32.9839 77.3203 32.3992 77.3203C31.7339 77.3789 31.2702 77.0664 31.2702 76.6172C31.2702 76.2266 31.7339 75.9141 32.3186 75.9141C32.9234 75.8555 33.4476 76.168 33.4476 76.6172ZM27.1774 75.7383C27.0363 76.1289 27.4395 76.5781 28.0444 76.6953C28.5686 76.8906 29.1734 76.6953 29.2944 76.3047C29.4153 75.9141 29.0323 75.4648 28.4274 75.2891C27.9032 75.1523 27.3186 75.3477 27.1774 75.7383ZM36.0887 75.4062C35.504 75.543 35.1008 75.9141 35.1613 76.3633C35.2218 76.7539 35.746 77.0078 36.3508 76.8711C36.9355 76.7344 37.3387 76.3633 37.2782 75.9727C37.2177 75.6016 36.6734 75.3477 36.0887 75.4062ZM49.3548 0.5625C21.3911 0.5625 0 21.1289 0 48.2188C0 69.8789 14.0726 88.4141 34.1734 94.9375C36.754 95.3867 37.6613 93.8438 37.6613 92.5742C37.6613 91.3633 37.6008 84.6836 37.6008 80.582C37.6008 80.582 23.4879 83.5117 20.5242 74.7617C20.5242 74.7617 18.2258 69.0781 14.9194 67.6133C14.9194 67.6133 10.3024 64.5469 15.2419 64.6055C15.2419 64.6055 20.2621 64.9961 23.0242 69.6445C27.4395 77.1836 34.8387 75.0156 37.7218 73.7266C38.1855 70.6016 39.496 68.4336 40.9476 67.1445C29.6774 65.9336 18.3065 64.3516 18.3065 45.5625C18.3065 40.1914 19.8387 37.4961 23.0645 34.0586C22.5403 32.7891 20.8266 27.5547 23.5887 20.7969C27.8024 19.5273 37.5 26.0703 37.5 26.0703C41.5323 24.9766 45.8669 24.4102 50.1613 24.4102C54.4556 24.4102 58.7903 24.9766 62.8226 26.0703C62.8226 26.0703 72.5202 19.5078 76.7339 20.7969C79.496 27.5742 77.7823 32.7891 77.2581 34.0586C80.4839 37.5156 82.4597 40.2109 82.4597 45.5625C82.4597 64.4102 70.5847 65.9141 59.3145 67.1445C61.1694 68.6875 62.7419 71.6172 62.7419 76.207C62.7419 82.7891 62.6814 90.9336 62.6814 92.5352C62.6814 93.8047 63.6089 95.3477 66.1694 94.8984C86.3307 88.4141 100 69.8789 100 48.2188C100 21.1289 77.3186 0.5625 49.3548 0.5625ZM19.5968 67.9258C19.3347 68.1211 19.3952 68.5703 19.7379 68.9414C20.0605 69.2539 20.5242 69.3906 20.7863 69.1367C21.0484 68.9414 20.9879 68.4922 20.6452 68.1211C20.3226 67.8086 19.8589 67.6719 19.5968 67.9258ZM17.4194 66.3438C17.2782 66.5977 17.4798 66.9102 17.8831 67.1055C18.2056 67.3008 18.6089 67.2422 18.75 66.9688C18.8911 66.7148 18.6895 66.4023 18.2863 66.207C17.8831 66.0898 17.5605 66.1484 17.4194 66.3438ZM23.9516 73.2969C23.629 73.5508 23.75 74.1367 24.2137 74.5078C24.6774 74.957 25.2621 75.0156 25.5242 74.7031C25.7863 74.4492 25.6653 73.8633 25.2621 73.4922C24.8186 73.043 24.2137 72.9844 23.9516 73.2969ZM21.6532 70.4258C21.3306 70.6211 21.3306 71.1289 21.6532 71.5781C21.9758 72.0273 22.5202 72.2227 22.7823 72.0273C23.1048 71.7734 23.1048 71.2656 22.7823 70.8164C22.5 70.3672 21.9758 70.1719 21.6532 70.4258Z" fill="#C4C4C4"/>
</svg>
